<?xml version="1.0" encoding="UTF-8"?>
<svg id="Layer_1" data-name="Layer 1" xmlns="http://www.w3.org/2000/svg" viewBox="0 0 720 151.86">
  <defs>
    <style>
      .cls-1 {
        fill: #fff;
      }
    </style>
  </defs>
  <g>
    <g>
      <path class="cls-1" d="M53.17,14.78C47.7,5.47,39.38.71,28.44.64H0v81.85h27.66c6.04,0,11.24-1.41,15.39-4.14,4.2-2.55,7.53-5.83,9.91-9.78.86-1.44,1.61-2.85,2.25-4.26.61-1.46,1.07-3.12,1.37-4.93.61-3.46.91-9.29.91-17.82,0-7.99-.19-13.48-.59-16.86-.52-3.47-1.78-6.82-3.72-9.92ZM15.69,16.01h11.51c5.06-.12,8.84,1.72,11.59,5.63l.13.16c1.27,1.49,2.09,3.5,2.43,5.91.3,2.83.45,7.63.45,14.27s-.15,11.48-.44,13.89c-.29,2.17-.96,3.96-2,5.32l-.1.14c-2.49,3.88-6.45,5.77-12.1,5.77h-11.45V16.01Z"/>
      <path class="cls-1" d="M90.69.64l-28.82,81.85h16.66l5.77-17.34h25.37l5.82,17.34h16.6L103.28.64h-12.59ZM105.02,50.41h-16.02l8.01-25,8.01,25Z"/>
      <polygon class="cls-1" points="204.18 .64 185.17 .64 157.25 36.7 157.25 .64 141.56 .64 141.56 82.48 157.25 82.48 157.25 57.56 167.82 46.1 187.46 82.48 205.96 82.48 178.26 33.57 204.18 .64"/>
      <path class="cls-1" d="M262.66,15.01c-1.91-3.84-4.99-7.29-9.17-10.25-4.33-3.08-9.76-4.68-16.21-4.76-6.33.08-11.71,1.67-15.98,4.73-4.27,2.96-7.43,6.42-9.41,10.26-1.24,2.09-2.17,4.81-2.76,8.1-.54,3.2-.8,9.25-.8,18.47s.26,15.06.8,18.32c.3,1.82.67,3.31,1.17,4.63.45,1.08.96,2.23,1.56,3.49,1.98,3.89,5.16,7.35,9.42,10.24,4.29,3.08,9.66,4.72,15.98,4.87h.05s.05,0,.05,0c6.38-.15,11.81-1.79,16.11-4.85,4.19-2.9,7.28-6.31,9.19-10.16,1.4-2.12,2.37-4.89,2.89-8.27.47-3.25.69-9.23.69-18.28s-.23-15.2-.7-18.41c-.52-3.28-1.49-6.02-2.88-8.14ZM227.24,20.93l.11-.13c1.01-1.34,2.37-2.49,4.04-3.39,1.6-.86,3.59-1.33,5.89-1.4,2.35.07,4.4.54,6.01,1.37,1.6.9,2.9,2.04,3.84,3.36l.14.18c1.22,1.38,2.08,3.21,2.54,5.41.49,2.63.74,7.75.74,15.22s-.25,12.54-.73,15.07c-.47,2.31-1.33,4.18-2.55,5.55l-.14.18c-.93,1.31-2.2,2.4-3.78,3.23l-.09.05c-1.65.97-3.66,1.46-5.97,1.46s-4.22-.49-5.79-1.44l-.15-.08c-1.65-.84-3-1.94-4-3.26l-.11-.13c-1.2-1.36-2.02-3.21-2.44-5.55-.52-2.54-.78-7.61-.78-15.07s.26-12.57.79-15.22c.41-2.22,1.23-4.04,2.43-5.4Z"/>
      <polygon class="cls-1" points="330.19 .64 273.32 .64 273.32 15.38 293.9 15.38 293.9 82.48 309.59 82.48 309.59 15.38 330.19 15.38 330.19 .64"/>
      <path class="cls-1" d="M353.42.64l-28.82,81.85h16.66l5.77-17.34h25.37l5.82,17.34h16.6L366.01.64h-12.59ZM367.75,50.41h-16.02l8.01-25,8.01,25Z"/>
      <path class="cls-1" d="M454.63,33.96c-3.53-.46-6.34-.86-8.32-1.2-3.22-.62-5.54-1.68-6.91-3.18-1.31-1.41-1.95-2.91-1.95-4.56.05-3.06,1.01-5.26,2.92-6.74,1.97-1.52,4.4-2.26,7.39-2.26,6.31.13,12.18,2.02,17.43,5.59l1.82,1.24,8.66-13.19-1.64-1.22c-7.23-5.37-15.83-8.21-25.65-8.43-8.29.08-14.84,2.4-19.43,6.88-4.78,4.56-7.21,10.6-7.21,17.96,0,6.16,1.93,11.47,5.74,15.79,3.69,4.2,9.07,6.92,16.04,8.11,3.61.53,6.93,1.01,9.88,1.43,5.59.99,8.06,3.55,8.01,8.26-.07,3.65-1.47,8.52-12.67,8.69-7.69-.07-14.41-2.49-19.96-7.21l-1.65-1.4-10.22,12.11,1.58,1.4c8.36,7.38,18.49,11.12,30.12,11.12,12.71-.16,27.97-4.56,28.48-24.73,0-5.98-1.84-11.3-5.47-15.82-3.71-4.65-9.42-7.55-17.02-8.62Z"/>
      <polygon class="cls-1" points="541.37 .64 484.5 .64 484.5 15.38 505.08 15.38 505.08 82.48 520.77 82.48 520.77 15.38 541.37 15.38 541.37 .64"/>
      <path class="cls-1" d="M564.6.64l-28.82,81.85h16.66l5.77-17.34h25.37l5.82,17.34h16.6L577.19.64h-12.59ZM578.93,50.41h-16.02l8.01-25,8.01,25Z"/>
      <polygon class="cls-1" points="600.65 15.38 621.23 15.38 621.23 82.48 636.92 82.48 636.92 15.38 657.51 15.38 657.51 .64 600.65 .64 600.65 15.38"/>
      <polygon class="cls-1" points="720 16.01 720 .64 667.71 .64 667.71 82.48 720 82.48 720 67.11 683.4 67.11 683.4 48.61 714.64 48.61 714.64 33.88 683.4 33.88 683.4 16.01 720 16.01"/>
    </g>
    <g>
      <path class="cls-1" d="M170.2,117.69c-1.15,1.83-1.15,4.55-1.15,6.9v19.64c0,2.35,0,5.07,1.15,6.79l-6.22.31.21-3.45c0-.16-.1-.21-.26-.21-.1,0-.31.31-.63.57-2.04,1.72-5.22,3.6-10.08,3.6-6.06,0-10.08-2.46-10.24-8.88v-18.39c0-2.35,0-5.07-1.15-6.9h7c-1.15,1.83-1.15,4.55-1.15,6.9v15.26c.16,5.59,2.46,8.99,8.36,8.99s7.94-3.81,8.1-10.03c.05-1.99.21-4.02.21-6.01v-8.2c0-2.35,0-5.07-1.15-6.9h7Z"/>
      <path class="cls-1" d="M195.03,151.02c1.83-4.28,1.83-10.66,1.83-15.26v-11.13c0-2.56-.1-5.38-1.67-6.95h5.28c.99,0,1.46,0,2.09.84,1.1,1.46,4.44,7.05,6.06,9.35l10.4,14.68c.37.52.78,1.25,1.1,1.25.37,0,.37-.52.37-.99v-18.44c0-3.55-.52-5.33-1.25-6.69h5.43c-1.25,2.4-1.57,5.12-1.57,7.78v20.9c0,1.72.05,3.29.1,4.86h-3.71l-19.12-27.22c-.21-.31-.37-.57-.57-.57s-.31.31-.31.78v13.43c0,4.18-.1,9.46,1.57,13.37h-6.01Z"/>
      <path class="cls-1" d="M250.88,124.53c0-2.35,0-5.07-1.15-6.84h7c-1.15,1.78-1.15,4.49-1.15,6.84v19.64c0,2.35,0,5.07,1.15,6.84h-7c1.15-1.78,1.15-4.49,1.15-6.84v-19.64Z"/>
      <path class="cls-1" d="M291.49,151.23l-.78-2.66c-2.46-8.36-6.11-21.21-9.82-29.1l-.84-1.78h4.65c1.04,0,1.31,1.2,1.57,1.99,2.72,8.1,5.75,16.14,7.94,24.4.26.99.52,1.52.84,1.52s.63-.84.89-1.62c1.52-4.6,7.89-19.49,7.89-24.4,0-.68-.1-1.31-.26-1.88h6.48l-.94,1.67c-4.96,8.88-8.99,19.44-12.54,29.05l-1.04,2.82h-4.02Z"/>
      <path class="cls-1" d="M339.05,148.93h6.01c3.24,0,6.58-.78,9.04-2.98l-.94,4.81c-1.41.1-3.13.26-5.02.26h-15.1c1.15-1.78,1.31-4.49,1.31-6.84v-19.64c0-2.35,0-5.07-1.15-6.84h18.23l.21,4.02c-1.83-1.57-4.65-1.93-7.73-1.93h-4.86v12.49c4.02,0,8.26,0,12.28-.37-1.83,2.98-7.73,2.98-10.97,2.98h-1.31v14.05Z"/>
      <path class="cls-1" d="M399.87,146.16c1.52,2.04,2.25,2.87,4.39,4.86h-4.28c-2.25,0-3.24-1.2-4.39-2.87l-6.37-9.09c-2.19-3.13-2.56-4.02-5.59-4.28v9.4c0,2.35,0,5.07,1.15,6.84h-7.26c1.51-2.4,1.41-4.91,1.41-7.16v-19.33c0-2.35,0-5.07-1.15-6.84,4.39,0,8.57-.52,12.64-.52,5.33,0,8.1,2.93,8.1,7,0,4.81-3.97,7.94-7.73,9.46l9.09,12.54ZM383.63,132.73c.78.1,1.57.16,2.35.16,5.07,0,7.84-2.72,7.84-7.68,0-5.22-2.98-5.85-7.63-5.96h-2.46c-.05.78-.1,1.67-.1,2.51v10.97Z"/>
      <path class="cls-1" d="M426.39,144.49c1.57,2.19,3.81,5.28,9.3,5.28,3.97,0,6.95-2.35,6.95-6.53,0-8.78-14.94-7.68-14.94-17.35,0-6.06,4.96-9.04,10.5-9.04,2.72,0,5.38.31,8.05.31v4.86c-2.35-2.46-3.76-3.08-7.26-3.08s-6.37,1.83-6.37,5.75c0,8.05,14.94,7.05,14.94,17.03,0,6.48-6.32,10.14-12.17,10.14-2.56,0-6.58-.84-8.99-1.83v-5.54Z"/>
      <path class="cls-1" d="M473.02,124.53c0-2.35,0-5.07-1.15-6.84h7c-1.15,1.78-1.15,4.49-1.15,6.84v19.64c0,2.35,0,5.07,1.15,6.84h-7c1.15-1.78,1.15-4.49,1.15-6.84v-19.64Z"/>
      <path class="cls-1" d="M511.63,151.02c1.15-1.78,1.15-4.49,1.15-6.84v-23.88h-6.95c-1.2,0-2.4.16-3.71,1.15l1.04-3.76h26.28c-.89,2.25-4.07,2.61-6.22,2.61h-5.75v23.88c0,2.35,0,5.07,1.15,6.84h-7Z"/>
      <path class="cls-1" d="M556.72,151.02c1.15-1.78,1.15-4.49,1.15-6.84v-4.75c0-3.66-1.57-7.16-3.66-11.44-2.09-4.28-4.75-8.36-6.9-10.29h4.49c1.88,0,2.25.47,3.19,1.99,2.04,3.24,4.44,9.2,5.43,12.9.21.78.42,1.57.84,1.57.31,0,.68-.89,1.2-1.83l3.55-6.32c1.2-2.09,2.35-4.65,2.35-6.22,0-.78-.21-1.46-.78-2.09h6.58l-5.96,9.25c-3.66,5.59-5.64,8.15-5.64,15.05v2.19c0,2.35,0,5.07,1.15,6.84h-7Z"/>
    </g>
  </g>
  <path class="cls-1" d="M600.47,125.7c0,4.27-3.35,7.62-7.71,7.62s-7.76-3.35-7.76-7.62,3.44-7.53,7.76-7.53,7.71,3.35,7.71,7.53ZM586.93,125.7c0,3.35,2.48,6.01,5.88,6.01s5.74-2.66,5.74-5.96-2.43-6.06-5.78-6.06-5.83,2.71-5.83,6.01ZM591.57,129.65h-1.75v-7.53c.69-.14,1.65-.23,2.89-.23,1.42,0,2.06.23,2.62.55.41.32.73.92.73,1.65,0,.83-.64,1.47-1.56,1.74v.09c.73.28,1.15.83,1.38,1.84.23,1.15.37,1.61.55,1.88h-1.88c-.23-.28-.37-.96-.6-1.84-.13-.83-.59-1.19-1.56-1.19h-.83v3.03ZM591.61,125.38h.83c.96,0,1.75-.32,1.75-1.1,0-.69-.5-1.15-1.61-1.15-.46,0-.78.04-.96.09v2.16Z"/>
</svg>